<svg id="Layer_1" data-name="Layer 1" xmlns="http://www.w3.org/2000/svg" viewBox="0 0 41.1 40.98"><defs><style>.cls-1{fill:#fff;}</style></defs><title>search</title><path class="cls-1" d="M41.35,38.27c0.53,0.56.13,1.68-.4,2.24s-1.81.9-2.07,0.57l-0.36-.33-9-9.07a15.32,15.32,0,0,1-4.94,2.87,17.25,17.25,0,0,1-6.3,1.15,17.27,17.27,0,0,1-6.94-1.39,18.18,18.18,0,0,1-5.65-3.79A17.58,17.58,0,0,1,.5,18,17.58,17.58,0,0,1,5.67,5.42,18.18,18.18,0,0,1,11.3,1.63,17.27,17.27,0,0,1,18.24.23a17.17,17.17,0,0,1,6.87,1.4,18.2,18.2,0,0,1,5.65,3.79,17.74,17.74,0,0,1,3.83,5.65A17.28,17.28,0,0,1,36,18a17.09,17.09,0,0,1-1.12,6.08,15.66,15.66,0,0,1-2.7,4.84ZM18.24,32.06A13.64,13.64,0,0,0,23.7,31a14,14,0,0,0,4.48-3,14.52,14.52,0,0,0,3-4.48,14,14,0,0,0,0-11,14.54,14.54,0,0,0-3-4.48A14,14,0,0,0,8.27,8a14.52,14.52,0,0,0-3,4.48A13.59,13.59,0,0,0,4.16,18a13.59,13.59,0,0,0,1.11,5.48,14.51,14.51,0,0,0,3,4.48,14,14,0,0,0,4.48,3A13.73,13.73,0,0,0,18.24,32.06Z" transform="translate(-0.5 -0.23)"/></svg>