<svg id="Layer_1" data-name="Layer 1" xmlns="http://www.w3.org/2000/svg" viewBox="0 0 56.83 57.01"><defs><style>.cls-1{fill:#fff;}</style></defs><title>bag</title><path class="cls-1" d="M57.35,53a4.15,4.15,0,0,1-.22,2,4.66,4.66,0,0,1-.72,1.22,4.36,4.36,0,0,1-1.22.89,4.74,4.74,0,0,1-2.22.44H4.45a4.63,4.63,0,0,1-1.75-.31,3.37,3.37,0,0,1-1.25-.86,3.41,3.41,0,0,1-.78-1.47,4.94,4.94,0,0,1-.06-2L4.9,24.89a7,7,0,0,1,2.44-4.56,7.13,7.13,0,0,1,4.89-1.94h4.28V13.66a13.77,13.77,0,0,1,.94-5.11,13,13,0,0,1,2.61-4.17A12.27,12.27,0,0,1,24,1.58,12.19,12.19,0,0,1,37.93,4.38a12.92,12.92,0,0,1,2.56,4.17,14.15,14.15,0,0,1,.92,5.11v4.72h3.95A7.58,7.58,0,0,1,52.69,25Zm-4.22.94a0.77,0.77,0,0,0,.56-0.17,0.32,0.32,0,0,0,.11-0.33l-4.61-28A3.89,3.89,0,0,0,47.88,23a3.69,3.69,0,0,0-2.53-1H41.41V26a4.11,4.11,0,0,1,1.28,1.31,3.26,3.26,0,0,1,.5,1.75,3.56,3.56,0,1,1-7.11,0,3.26,3.26,0,0,1,.5-1.75A4.1,4.1,0,0,1,37.85,26V21.94H20.07V26a4.11,4.11,0,0,1,1.28,1.31,3.26,3.26,0,0,1,.5,1.75,3.51,3.51,0,0,1-3.56,3.56,3.51,3.51,0,0,1-3.56-3.56,3.26,3.26,0,0,1,.5-1.75A4.1,4.1,0,0,1,16.51,26V21.94H12.23a3.69,3.69,0,0,0-2.53,1A3.8,3.8,0,0,0,8.4,25.39l-4.28,28a0.44,0.44,0,0,0,.14.47,0.71,0.71,0,0,0,.42.14ZM20.07,13.66v4.72H37.85V13.66a9.93,9.93,0,0,0-2.44-6.75A8.07,8.07,0,0,0,29,4.11a8.24,8.24,0,0,0-6.45,2.81A9.8,9.8,0,0,0,20.07,13.66Z" transform="translate(-0.55 -0.55)"/></svg>