<svg id="Layer_1" data-name="Layer 1" xmlns="http://www.w3.org/2000/svg" viewBox="0 0 234.92 121.6"><defs><style>.cls-1{fill:#fff;fill-rule:evenodd;}</style></defs><title>zorrata_logo</title><path class="cls-1" d="M89.35,64.75c2.05-2.15,4.06-4.35,6.17-6.44q20-19.76,40.06-39.5a3.57,3.57,0,0,1,2.86-1.14c2.4,0.08,4.8,0,7.61,0L104.86,58.28h38.89v6.47H89.35Z" transform="translate(-0.25 0)"/><path class="cls-1" d="M130.46,6.43H91.54V0h54.67c-0.48.5-.81,0.88-1.16,1.22Q122.34,23.6,99.63,46A3.4,3.4,0,0,1,96.9,47.1c-2.44-.08-4.88,0-7.7,0Z" transform="translate(-0.25 0)"/><path class="cls-1" d="M69.55,97a0.39,0.39,0,0,1,.12-0.09c5.24,0,10.5-.15,15.73.19a8.18,8.18,0,0,1,7.58,6,8.9,8.9,0,0,1-2.25,9.7,19.73,19.73,0,0,1-2.2,1.63l3.74,6.6c-1.62,0-3.12,0-4.61,0a1,1,0,0,1-.52-0.52c-0.85-1.5-1.66-3-2.51-4.53a1,1,0,0,0-.62-0.51c-3.33,0-6.66,0-10.07,0V121H69.55V97Zm4.39,14.36c3.49,0,6.89.11,10.27,0a4.79,4.79,0,0,0,4.86-5.23A4.89,4.89,0,0,0,84,101c-3.21-.1-6.43,0-9.64-0.05a2.14,2.14,0,0,0-.43.09v10.29Z" transform="translate(-0.25 0)"/><path class="cls-1" d="M108.81,115.42V121h-4.35v-24a6,6,0,0,1,.67-0.07c4.46,0,8.92,0,13.38,0,3.43,0,6.37,1.18,8.37,4.11,2.6,3.79,2.1,10.36-3,13.1-0.16.09-.3,0.2-0.47,0.3l3.77,6.65c-1.63,0-3.12,0-4.61,0a1,1,0,0,1-.52-0.53c-0.85-1.5-1.66-3-2.51-4.53a1,1,0,0,0-.62-0.5C115.59,115.41,112.26,115.42,108.81,115.42Zm0.06-4.13c3.59,0,7.13.1,10.66,0a4.49,4.49,0,0,0,4-2.74,5.17,5.17,0,0,0-4.46-7.5c-3.24-.12-6.49-0.05-9.73-0.06a3.53,3.53,0,0,0-.47.07v10.27Z" transform="translate(-0.25 0)"/><path class="cls-1" d="M45.31,121.6a12.59,12.59,0,0,1-2-24.93,14.06,14.06,0,0,1,12.56,2.85A11.87,11.87,0,0,1,60,110.59C59.23,117.65,53.17,121.68,45.31,121.6Zm0.64-3.83c8.47,0,11.27-6.89,9.12-12.38-1.43-3.67-4.46-5.13-8.19-5.24a8.49,8.49,0,0,0-7.34,3.11,9,9,0,0,0-1,9.77A8,8,0,0,0,45.95,117.78Z" transform="translate(-0.25 0)"/><path class="cls-1" d="M165.91,121c-1.44,0-2.8,0-4.16,0a1,1,0,0,1-.67-0.55c-0.44-.89-0.79-1.84-1.23-2.73a1,1,0,0,0-.71-0.48c-5.31,0-10.62,0-16,0-0.46,1-.92,2.06-1.34,3.1a1,1,0,0,1-1.06.73c-1.3-.05-2.59,0-4,0,0.76-1.76,1.48-3.42,2.2-5.08,2.67-6.1,5.35-12.19,8-18.3a1.16,1.16,0,0,1,1.28-.82c2.24,0,4.49,0,6.73,0a0.92,0.92,0,0,1,1,.64q4.82,11.41,9.69,22.8C165.77,120.5,165.82,120.73,165.91,121Zm-8.13-7.76c-0.09-.29-0.13-0.49-0.21-0.68q-2-5-4.1-10.08c-0.69-1.69-.7-1.66-2.57-1.7a1.07,1.07,0,0,0-1.21.78c-1,2.44-2,4.86-3,7.29-0.6,1.44-1.18,2.88-1.8,4.39h12.92Z" transform="translate(-0.25 0)"/><path class="cls-1" d="M235.17,121c-1.45,0-2.78,0-4.11,0a1,1,0,0,1-.71-0.5c-0.46-.92-0.82-1.88-1.27-2.81a0.9,0.9,0,0,0-.63-0.46c-5.34,0-10.67,0-16,0-0.47,1.09-1,2.13-1.38,3.2a0.86,0.86,0,0,1-.95.63c-1.3,0-2.61,0-4.06,0,0.29-.7.55-1.32,0.81-1.93q4.69-10.73,9.37-21.46a1.1,1.1,0,0,1,1.2-.81c2.28,0,4.55,0,6.83,0a0.86,0.86,0,0,1,1,.57q4.85,11.5,9.75,23C235,120.55,235.06,120.72,235.17,121ZM227,113.28c-0.08-.28-0.12-0.45-0.19-0.62q-2-5-4.07-10c-0.77-1.88-.78-1.85-2.83-1.85a0.87,0.87,0,0,0-.93.64c-1.52,3.69-3.07,7.37-4.6,11.05a7.59,7.59,0,0,0-.23.77H227Z" transform="translate(-0.25 0)"/><path class="cls-1" d="M17.19,100.77H0.77V96.93H22.88c0,1.18,0,2.36,0,3.53a1.6,1.6,0,0,1-.56.86q-7.75,7.56-15.53,15.1c-0.21.21-.47,0.38-0.89,0.72H23.23V121h-23c0-1.24,0-2.47,0-3.7a1.65,1.65,0,0,1,.62-0.84q7.88-7.5,15.78-15c0.2-.19.42-0.34,0.63-0.51Z" transform="translate(-0.25 0)"/><path class="cls-1" d="M183.85,121V100.88H173.62v-4h24.87v3.92H188.32V121h-4.47Z" transform="translate(-0.25 0)"/></svg>